<svg xmlns="http://www.w3.org/2000/svg" width="256" height="360" viewBox="0 0 256 360" role="img" aria-label="Campaign sign marker">
  <defs>
    <linearGradient id="pole" x1="0" x2="1">
      <stop offset="0" stop-color="#2d3138"/>
      <stop offset="0.45" stop-color="#6a7079"/>
      <stop offset="0.7" stop-color="#2b2f35"/>
      <stop offset="1" stop-color="#111318"/>
    </linearGradient>
    <filter id="shadow" x="-20%" y="-20%" width="140%" height="150%">
      <feDropShadow dx="0" dy="3" stdDeviation="3" flood-color="#000" flood-opacity=".35"/>
    </filter>
  </defs>

  <g filter="url(#shadow)">
    <rect x="18" y="18" width="220" height="128" rx="7" fill="#f8f9fb" stroke="#e5e7eb" stroke-width="5"/>
    <rect x="23" y="23" width="210" height="118" rx="4" fill="none" stroke="#0b3f91" stroke-width="7"/>
    <rect x="30" y="30" width="196" height="104" rx="2" fill="none" stroke="#d71920" stroke-width="4"/>

    <path d="M31 31h52c-6 22-23 37-52 40z" fill="#d71920"/>
    <path d="M31 31h42c-6 15-20 27-42 30z" fill="#fff"/>
    <path d="M31 31h31c-7 10-17 18-31 21z" fill="#0b3f91"/>
    <path d="M225 31h-52c6 22 23 37 52 40z" fill="#d71920"/>
    <path d="M225 31h-42c6 15 20 27 42 30z" fill="#fff"/>
    <path d="M225 31h-31c7 10 17 18 31 21z" fill="#0b3f91"/>

    <g fill="#d71920">
      <path d="M103 63l3.2 7 7.6.8-5.7 5.1 1.7 7.4-6.8-3.9-6.7 3.9 1.6-7.4-5.6-5.1 7.5-.8z"/>
      <path d="M153 63l3.2 7 7.6.8-5.7 5.1 1.7 7.4-6.8-3.9-6.7 3.9 1.6-7.4-5.6-5.1 7.5-.8z"/>
    </g>
    <path d="M128 49l5.1 11 12.1 1.3-9.1 8.2 2.6 11.8-10.7-6.2-10.7 6.2 2.6-11.8-9.1-8.2 12.1-1.3z" fill="#0b3f91"/>

    <text x="128" y="108" text-anchor="middle" font-family="Arial Black, Arial, sans-serif" font-size="33" font-weight="900" letter-spacing="-1" fill="#0b3f91">CAMPAIGN</text>

    <line x1="39" y1="118" x2="91" y2="118" stroke="#d71920" stroke-width="4"/>
    <line x1="165" y1="118" x2="217" y2="118" stroke="#d71920" stroke-width="4"/>
    <g fill="#0b3f91">
      <path d="M105 113l2 4.2 4.7.5-3.5 3.2 1 4.6-4.2-2.4-4.2 2.4 1-4.6-3.5-3.2 4.7-.5z"/>
      <path d="M117 113l2 4.2 4.7.5-3.5 3.2 1 4.6-4.2-2.4-4.2 2.4 1-4.6-3.5-3.2 4.7-.5z"/>
      <path d="M129 113l2 4.2 4.7.5-3.5 3.2 1 4.6-4.2-2.4-4.2 2.4 1-4.6-3.5-3.2 4.7-.5z"/>
      <path d="M141 113l2 4.2 4.7.5-3.5 3.2 1 4.6-4.2-2.4-4.2 2.4 1-4.6-3.5-3.2 4.7-.5z"/>
      <path d="M153 113l2 4.2 4.7.5-3.5 3.2 1 4.6-4.2-2.4-4.2 2.4 1-4.6-3.5-3.2 4.7-.5z"/>
    </g>
  </g>

  <path d="M121 145h14v177l-7 28-7-28z" fill="url(#pole)" stroke="#111318" stroke-width="1.5"/>
</svg>
